# 3ds Max Wavefront OBJ Exporter v0.97b - (c)2007 guruware
# File Created: 17.07.2019 16:22:55

mtllib Board_01.mtl

#
# object Plane002
#

v  -407.9951 -30.1430 -752.9155
v  -417.4913 -30.1430 -751.0162
v  -423.1891 -30.1430 -745.3184
v  -425.0883 -30.1430 -735.8222
v  -425.0883 -30.1430 735.8222
v  -423.1891 -30.1430 745.3184
v  -417.4913 -30.1430 751.0162
v  -407.9951 -30.1430 752.9155
v  390.2509 -30.1430 752.9155
v  399.7472 -30.1430 751.0162
v  405.4449 -30.1430 745.3184
v  407.3442 -30.1430 735.8222
v  407.3442 -30.1430 -735.8222
v  405.4449 -30.1430 -745.3184
v  399.7472 -30.1430 -751.0162
v  390.2509 -30.1430 -752.9155
v  -535.2714 34.8658 846.0052
v  -535.2714 34.8658 -846.0052
v  -535.2714 -35.5076 -846.0052
v  -535.2714 -35.5076 846.0052
v  -518.1781 34.8658 -863.0986
v  500.4340 34.8658 -863.0986
v  500.4340 -35.5076 -863.0986
v  -518.1781 -35.5076 -863.0986
v  517.5273 34.8658 -846.0052
v  517.5273 34.8658 846.0052
v  517.5273 -35.5076 846.0052
v  517.5273 -35.5076 -846.0052
v  500.4340 34.8658 863.0986
v  -518.1781 34.8658 863.0986
v  -518.1781 -35.5076 863.0986
v  500.4340 -35.5076 863.0986
v  -425.0883 34.8658 735.8222
v  -425.0883 34.8658 -735.8222
v  390.2509 34.8658 752.9155
v  -407.9951 34.8658 752.9155
v  407.3442 34.8658 -735.8222
v  407.3442 34.8658 735.8222
v  -407.9951 34.8658 -752.9155
v  390.2509 34.8658 -752.9155
v  500.4340 -226.8038 -863.0986
v  509.9302 -226.8038 -861.1993
v  515.6281 -226.8038 -855.5015
v  517.5273 -226.8038 -846.0052
v  517.5273 -226.8038 846.0052
v  515.6281 -226.8038 855.5015
v  509.9302 -226.8038 861.1993
v  500.4340 -226.8038 863.0986
v  -518.1781 -226.8038 863.0986
v  -527.6744 -226.8038 861.1993
v  -533.3722 -226.8038 855.5015
v  -535.2714 -226.8038 846.0052
v  -535.2714 -226.8038 -846.0052
v  -533.3722 -226.8038 -855.5015
v  -527.6744 -226.8038 -861.1993
v  -518.1781 -226.8038 -863.0986
v  -527.6744 34.8658 861.1993
v  -527.6744 -35.5076 861.1993
v  515.6281 34.8658 855.5015
v  515.6281 -35.5076 855.5015
v  -533.3722 34.8658 -855.5015
v  -533.3722 -35.5076 -855.5015
v  509.9302 34.8658 -861.1993
v  509.9302 -35.5076 -861.1993
v  -527.6744 34.8658 -861.1993
v  -417.4913 34.8658 -751.0162
v  -533.3722 34.8658 855.5015
v  -423.1891 34.8658 745.3184
v  509.9302 34.8658 861.1993
v  399.7472 34.8658 751.0162
v  515.6281 34.8658 -855.5015
v  405.4449 34.8658 -745.3184
v  -533.3722 -35.5076 855.5015
v  509.9302 -35.5076 861.1993
v  -527.6744 -35.5076 -861.1993
v  515.6281 -35.5076 -855.5015
v  -423.1891 34.8658 -745.3184
v  -417.4913 34.8658 751.0162
v  405.4449 34.8658 745.3184
v  399.7472 34.8658 -751.0162
v  -535.2714 -55.1829 -846.0052
v  -535.2714 -55.1829 846.0052
v  500.4340 -55.1829 -863.0986
v  -518.1781 -55.1829 -863.0986
v  517.5273 -55.1829 846.0052
v  517.5273 -55.1829 -846.0052
v  -518.1781 -55.1829 863.0986
v  500.4340 -55.1829 863.0986
v  -527.6744 -55.1829 861.1993
v  515.6281 -55.1829 855.5015
v  -533.3722 -55.1829 -855.5015
v  509.9302 -55.1829 -861.1993
v  -533.3722 -55.1829 855.5015
v  509.9302 -55.1829 861.1993
v  -527.6744 -55.1829 -861.1993
v  515.6281 -55.1829 -855.5015
v  -535.2714 -45.3452 -846.0052
v  -535.2714 -45.3452 846.0052
v  500.4340 -45.3452 -863.0986
v  -518.1781 -45.3452 -863.0986
v  517.5273 -45.3452 846.0052
v  517.5273 -45.3452 -846.0052
v  -518.1781 -45.3452 863.0986
v  500.4340 -45.3452 863.0986
v  -527.6744 -45.3452 861.1993
v  515.6281 -45.3452 855.5015
v  -533.3722 -45.3452 -855.5015
v  509.9302 -45.3452 -861.1993
v  -533.3722 -45.3452 855.5015
v  509.9302 -45.3452 861.1993
v  -527.6744 -45.3452 -861.1993
v  515.6281 -45.3452 -855.5015
# 112 vertices

vn 0.0717 0.6856 0.7244
vn 0.3597 0.6473 0.6720
vn 0.6720 0.6473 0.3597
vn 0.7244 0.6856 0.0717
vn 0.7244 0.6856 -0.0717
vn 0.6720 0.6473 -0.3597
vn 0.3597 0.6473 -0.6720
vn 0.0717 0.6856 -0.7244
vn -0.0717 0.6856 -0.7244
vn -0.3597 0.6473 -0.6720
vn -0.6720 0.6473 -0.3597
vn -0.7244 0.6856 -0.0717
vn -0.7244 0.6856 0.0717
vn -0.6720 0.6473 0.3597
vn -0.3597 0.6473 0.6720
vn -0.0717 0.6856 0.7244
vn -0.9951 0.0000 -0.0985
vn -0.9951 0.0000 0.0985
vn 0.0985 0.0000 -0.9951
vn -0.0985 0.0000 -0.9951
vn 0.9951 0.0000 0.0985
vn 0.9951 0.0000 -0.0985
vn -0.0985 0.0000 0.9951
vn 0.0985 0.0000 0.9951
vn 0.6801 0.7300 -0.0673
vn 0.6801 0.7300 0.0673
vn -0.0673 0.7300 -0.6801
vn 0.0673 0.7300 -0.6801
vn -0.6801 0.7300 0.0673
vn -0.6801 0.7300 -0.0673
vn 0.0673 0.7300 0.6801
vn -0.0673 0.7300 0.6801
vn 0.0717 -0.6856 -0.7244
vn 0.3596 -0.6474 -0.6720
vn 0.6720 -0.6474 -0.3596
vn 0.7244 -0.6856 -0.0717
vn 0.7244 -0.6856 0.0717
vn 0.6720 -0.6474 0.3596
vn 0.3596 -0.6474 0.6720
vn 0.0717 -0.6856 0.7244
vn -0.0717 -0.6856 0.7244
vn -0.3596 -0.6474 0.6720
vn -0.6720 -0.6474 0.3596
vn -0.7244 -0.6856 0.0717
vn -0.7244 -0.6856 -0.0717
vn -0.6720 -0.6474 -0.3596
vn -0.3596 -0.6474 -0.6720
vn -0.0717 -0.6856 -0.7244
vn -0.3596 0.6474 0.6720
vn -0.4718 0.0000 0.8817
vn 0.6720 0.6473 0.3596
vn 0.8817 0.0000 0.4718
vn -0.6720 0.6473 -0.3596
vn -0.8817 0.0000 -0.4718
vn 0.3596 0.6474 -0.6720
vn 0.4718 0.0000 -0.8817
vn -0.3596 0.6474 -0.6720
vn 0.2962 0.7785 0.5534
vn -0.6720 0.6473 0.3596
vn 0.5534 0.7785 -0.2962
vn 0.3596 0.6474 0.6720
vn -0.2962 0.7785 -0.5534
vn 0.6720 0.6473 -0.3596
vn -0.5534 0.7785 0.2962
vn -0.8817 0.0000 0.4718
vn 0.4718 0.0000 0.8817
vn -0.4718 0.0000 -0.8817
vn 0.8817 0.0000 -0.4718
vn 0.5534 0.7785 0.2962
vn 0.2962 0.7785 -0.5534
vn -0.5534 0.7785 -0.2962
vn -0.2962 0.7785 0.5534
# 72 vertex normals

vt 0.0205 1.0000 0.0000
vt 0.0091 0.9987 0.0000
vt 0.0023 0.9950 0.0000
vt 0.0000 0.9886 0.0000
vt 0.0000 0.0114 0.0000
vt 0.0023 0.0050 0.0000
vt 0.0091 0.0013 0.0000
vt 0.0205 0.0000 0.0000
vt 0.9795 0.0000 0.0000
vt 0.9909 0.0013 0.0000
vt 0.9977 0.0050 0.0000
vt 1.0000 0.0114 0.0000
vt 1.0000 0.9886 0.0000
vt 0.9977 0.9950 0.0000
vt 0.9909 0.9987 0.0000
vt 0.9795 1.0000 0.0000
vt 0.0000 0.0099 0.0000
vt 0.0000 0.9901 0.0000
vt 0.0162 1.0000 0.0000
vt 0.9838 1.0000 0.0000
vt 1.0000 0.9901 0.0000
vt 1.0000 0.0099 0.0000
vt 0.9838 0.0000 0.0000
vt 0.0162 0.0000 0.0000
vt 1.0000 0.0162 0.0000
vt 0.9989 0.0072 0.0000
vt 0.9956 0.0018 0.0000
vt 0.9901 0.0000 0.0000
vt 0.0099 0.0000 0.0000
vt 0.0044 0.0018 0.0000
vt 0.0011 0.0072 0.0000
vt 0.0000 0.0162 0.0000
vt 0.0000 0.9838 0.0000
vt 0.0011 0.9928 0.0000
vt 0.0044 0.9982 0.0000
vt 0.0099 1.0000 0.0000
vt 0.9901 1.0000 0.0000
vt 0.9956 0.9982 0.0000
vt 0.9989 0.9928 0.0000
vt 1.0000 0.9838 0.0000
vt 0.0108 0.0033 0.0000
vt 0.9946 0.0066 0.0000
vt 0.0054 0.9934 0.0000
vt 0.9892 0.9967 0.0000
vt 0.0108 0.9967 0.0000
vt 0.0137 0.9962 0.0000
vt 0.0054 0.0066 0.0000
vt 0.0068 0.0076 0.0000
vt 0.9892 0.0033 0.0000
vt 0.9863 0.0038 0.0000
vt 0.9946 0.9934 0.0000
vt 0.9932 0.9924 0.0000
vt 0.0068 0.9924 0.0000
vt 0.0137 0.0038 0.0000
vt 0.9932 0.0076 0.0000
vt 0.9863 0.9962 0.0000
# 56 texture coords

o Plane002
g Plane002
usemtl 02___Default
s 1
f 1/1/1 2/2/2 3/3/3 4/4/4 5/5/5 6/6/6 7/7/7 8/8/8 9/9/9 10/10/10 11/11/11 12/12/12 13/13/13 14/14/14 15/15/15 16/16/16 
f 17/17/13 18/18/12 19/18/17 20/17/18 
f 21/19/9 22/20/8 23/20/19 24/19/20 
f 25/21/5 26/22/4 27/22/21 28/21/22 
f 29/23/1 30/24/16 31/24/23 32/23/24 
s 2
f 18/18/12 17/17/13 33/5/25 34/4/26 
f 30/24/16 29/23/1 35/9/27 36/8/28 
f 26/22/4 25/21/5 37/13/29 38/12/30 
f 22/20/8 21/19/9 39/1/31 40/16/32 
s 4
f 34/4/26 33/5/25 5/5/5 4/4/4 
f 36/8/28 35/9/27 9/9/9 8/8/8 
f 38/12/30 37/13/29 13/13/13 12/12/12 
f 40/16/32 39/1/31 1/1/1 16/16/16 
s 2
f 41/25/33 42/26/34 43/27/35 44/28/36 45/29/37 46/30/38 47/31/39 48/32/40 49/33/41 50/34/42 51/35/43 52/36/44 53/37/45 54/38/46 55/39/47 56/40/48 
s 1
f 30/24/16 57/41/49 58/41/50 31/24/23 
f 26/22/4 59/42/51 60/42/52 27/22/21 
f 18/18/12 61/43/53 62/43/54 19/18/17 
f 22/20/8 63/44/55 64/44/56 23/20/19 
s 2
f 21/19/9 65/45/57 66/46/58 39/1/31 
f 17/17/13 67/47/59 68/48/60 33/5/25 
f 29/23/1 69/49/61 70/50/62 35/9/27 
f 25/21/5 71/51/63 72/52/64 37/13/29 
s 4
f 39/1/31 66/46/58 2/2/2 1/1/1 
f 33/5/25 68/48/60 6/6/6 5/5/5 
f 35/9/27 70/50/62 10/10/10 9/9/9 
f 37/13/29 72/52/64 14/14/14 13/13/13 
s 1
f 57/41/49 67/47/59 73/47/65 58/41/50 
f 67/47/59 17/17/13 20/17/18 73/47/65 
f 59/42/51 69/49/61 74/49/66 60/42/52 
f 69/49/61 29/23/1 32/23/24 74/49/66 
f 61/43/53 65/45/57 75/45/67 62/43/54 
f 65/45/57 21/19/9 24/19/20 75/45/67 
f 63/44/55 71/51/63 76/51/68 64/44/56 
f 71/51/63 25/21/5 28/21/22 76/51/68 
s 2
f 65/45/57 61/43/53 77/53/69 66/46/58 
f 61/43/53 18/18/12 34/4/26 77/53/69 
f 67/47/59 57/41/49 78/54/70 68/48/60 
f 57/41/49 30/24/16 36/8/28 78/54/70 
f 69/49/61 59/42/51 79/55/71 70/50/62 
f 59/42/51 26/22/4 38/12/30 79/55/71 
f 71/51/63 63/44/55 80/56/72 72/52/64 
f 63/44/55 22/20/8 40/16/32 80/56/72 
s 4
f 66/46/58 77/53/69 3/3/3 2/2/2 
f 77/53/69 34/4/26 4/4/4 3/3/3 
f 68/48/60 78/54/70 7/7/7 6/6/6 
f 78/54/70 36/8/28 8/8/8 7/7/7 
f 70/50/62 79/55/71 11/11/11 10/10/10 
f 79/55/71 38/12/30 12/12/12 11/11/11 
f 72/52/64 80/56/72 15/15/15 14/14/14 
f 80/56/72 40/16/32 16/16/16 15/15/15 
s 1
f 81/18/17 53/18/45 52/17/44 82/17/18 
f 83/20/19 41/20/33 56/19/48 84/19/20 
f 85/22/21 45/22/37 44/21/36 86/21/22 
f 87/24/23 49/24/41 48/23/40 88/23/24 
f 89/41/50 50/41/42 49/24/41 87/24/23 
f 90/42/52 46/42/38 45/22/37 85/22/21 
f 91/43/54 54/43/46 53/18/45 81/18/17 
f 92/44/56 42/44/34 41/20/33 83/20/19 
f 93/47/65 51/47/43 50/41/42 89/41/50 
f 82/17/18 52/17/44 51/47/43 93/47/65 
f 94/49/66 47/49/39 46/42/38 90/42/52 
f 88/23/24 48/23/40 47/49/39 94/49/66 
f 95/45/67 55/45/47 54/43/46 91/43/54 
f 84/19/20 56/19/48 55/45/47 95/45/67 
f 96/51/68 43/51/35 42/44/34 92/44/56 
f 86/21/22 44/21/36 43/51/35 96/51/68 
f 19/18/17 97/18/17 98/17/18 20/17/18 
f 23/20/19 99/20/19 100/19/20 24/19/20 
f 27/22/21 101/22/21 102/21/22 28/21/22 
f 31/24/23 103/24/23 104/23/24 32/23/24 
f 58/41/50 105/41/50 103/24/23 31/24/23 
f 60/42/52 106/42/52 101/22/21 27/22/21 
f 62/43/54 107/43/54 97/18/17 19/18/17 
f 64/44/56 108/44/56 99/20/19 23/20/19 
f 73/47/65 109/47/65 105/41/50 58/41/50 
f 20/17/18 98/17/18 109/47/65 73/47/65 
f 74/49/66 110/49/66 106/42/52 60/42/52 
f 32/23/24 104/23/24 110/49/66 74/49/66 
f 75/45/67 111/45/67 107/43/54 62/43/54 
f 24/19/20 100/19/20 111/45/67 75/45/67 
f 76/51/68 112/51/68 108/44/56 64/44/56 
f 28/21/22 102/21/22 112/51/68 76/51/68 
f 97/18/17 81/18/17 82/17/18 98/17/18 
f 99/20/19 83/20/19 84/19/20 100/19/20 
f 101/22/21 85/22/21 86/21/22 102/21/22 
f 103/24/23 87/24/23 88/23/24 104/23/24 
f 105/41/50 89/41/50 87/24/23 103/24/23 
f 106/42/52 90/42/52 85/22/21 101/22/21 
f 107/43/54 91/43/54 81/18/17 97/18/17 
f 108/44/56 92/44/56 83/20/19 99/20/19 
f 109/47/65 93/47/65 89/41/50 105/41/50 
f 98/17/18 82/17/18 93/47/65 109/47/65 
f 110/49/66 94/49/66 90/42/52 106/42/52 
f 104/23/24 88/23/24 94/49/66 110/49/66 
f 111/45/67 95/45/67 91/43/54 107/43/54 
f 100/19/20 84/19/20 95/45/67 111/45/67 
f 112/51/68 96/51/68 92/44/56 108/44/56 
f 102/21/22 86/21/22 96/51/68 112/51/68 
# 98 polygons

